<?xml version="1.0" encoding="UTF-8"?>
<svg id="Capa_2" data-name="Capa 2" xmlns="http://www.w3.org/2000/svg" viewBox="0 0 35.4 34.66">
  <defs>
    <style>
      .cls-1 {
        fill: #b2bfcc;
        stroke-width: 0px;
      }
    </style>
  </defs>
  <g id="Bar4">
    <g>
      <path class="cls-1" d="m22.16,8.66h5.91c.26,0,.47.21.47.47v22.34h-6.84V9.13c0-.26.21-.47.47-.47Z" transform="translate(21.54 -11.88) rotate(45)"/>
      <path class="cls-1" d="m11.26,34.63l6.6-2.47-4.84-4.84-2.47,6.6c-.17.44.27.87.71.71Z"/>
      <path class="cls-1" d="m25.81,7.07c-.03-.07-.18-.14-.25-.12-1.24.26-2.35-.03-3.35-.77-1.52-1.11-2.35-2.54-2.02-4.49.09-.54.09-.57-.4-.79-.7-.32-1.42-.59-2.12-.88-1.04,1.58-2.38,2.6-4.26,2.59-1.89,0-3.23-1.03-4.27-2.61-.79.34-1.57.68-2.36,1.01-.22.09-.26.21-.2.43.16.66.16,1.33.03,1.99-.36,1.79-2.84,4.12-5.32,3.51-.07-.02-.21.03-.24.08C.6,7.83.26,8.67,0,9.56c1.5.94,2.64,2.14,2.56,4.04-.07,1.83-1.07,3.12-2.57,4.1.08.24.14.47.23.69.23.56.49,1.11.72,1.67.1.26.24.28.49.22,2.21-.53,4.56.89,5.14,3.09.19.72.16,1.44,0,2.16-.03.13-.08.26.09.33.83.36,1.65.72,2.4,1.04l9.09-8.99,8.63-8.53c-.33-.77-.64-1.55-.97-2.32Zm-12.42,12.32c-3.27,0-5.9-2.66-5.9-5.97,0-3.23,2.66-5.88,5.92-5.88,3.29,0,5.93,2.64,5.93,5.93,0,3.28-2.65,5.92-5.95,5.92Z"/>
      <path class="cls-1" d="m13.41,9.53c2.19,0,3.94,1.75,3.94,3.94,0,2.18-1.76,3.93-3.95,3.93-2.17,0-3.92-1.77-3.92-3.96,0-2.15,1.77-3.9,3.93-3.9Z"/>
    </g>
  </g>
</svg>