<?xml version="1.0" encoding="UTF-8"?>
<svg id="Capa_2" data-name="Capa 2" xmlns="http://www.w3.org/2000/svg" viewBox="0 0 301.15 50.4">
  <defs>
    <style>
      .cls-1 {
        fill: #fff;
      }

      .cls-2 {
        fill: #1aadfd;
      }
    </style>
  </defs>
  <g id="Capa_1-2" data-name="Capa 1">
    <g>
      <g>
        <polygon class="cls-2" points="0 10.64 15.81 18.99 15.81 8.36 0 0 0 10.64"/>
        <polygon class="cls-2" points="33.76 10.64 17.95 18.99 17.95 8.36 33.76 0 33.76 10.64"/>
        <polygon class="cls-2" points="0 12.81 9.85 18.01 9.85 34.29 0 29.09 0 12.81"/>
        <polygon class="cls-2" points="33.8 12.81 23.92 18.01 23.92 34.29 33.77 29.09 33.8 12.81"/>
      </g>
      <path class="cls-1" d="m87.28,27.2c-1.22-.66-2.17-1.57-2.84-2.75-.68-1.18-1.01-2.53-1.01-4.07v-6.57c0-1.52.34-2.86,1.01-4.02s1.62-2.07,2.84-2.72c1.22-.65,2.63-.97,4.22-.97s3.04.32,4.25.97c1.22.64,2.17,1.55,2.84,2.72s1.01,2.51,1.01,4.02v6.57c0,1.54-.34,2.9-1.01,4.08-.68,1.19-1.62,2.1-2.84,2.75-1.22.65-2.64.97-4.25.97s-3-.33-4.22-.98Zm6.96-3.81c.7-.72,1.04-1.67,1.04-2.86v-6.76c0-1.19-.34-2.14-1.03-2.87-.69-.73-1.6-1.09-2.75-1.09s-2.03.36-2.72,1.09c-.69.73-1.03,1.68-1.03,2.87v6.76c0,1.19.34,2.14,1.03,2.86.69.72,1.59,1.07,2.72,1.07s2.04-.36,2.73-1.07Z"/>
      <path class="cls-1" d="m156.98,21.51c0,.82.38,1.51,1.14,2.07.76.56,1.78.84,3.07.84,1.09,0,1.89-.23,2.43-.69.53-.46.8-1.03.8-1.7,0-.49-.16-.91-.49-1.24-.33-.34-.77-.63-1.34-.89-.56-.26-1.46-.61-2.69-1.06-1.37-.47-2.53-.95-3.49-1.44-.95-.49-1.75-1.16-2.4-2.01-.65-.85-.97-1.9-.97-3.15s.32-2.3.95-3.22,1.52-1.63,2.64-2.12c1.13-.49,2.43-.74,3.9-.74,1.56,0,2.94.28,4.16.83,1.22.55,2.17,1.33,2.86,2.32.69.99,1.03,2.14,1.03,3.45v.83h-4.27v-.61c0-.86-.35-1.59-1.06-2.2-.71-.6-1.67-.91-2.9-.91-.96,0-1.72.21-2.26.61-.54.41-.81.97-.81,1.69,0,.51.16.94.48,1.29.32.35.79.66,1.41.94.62.28,1.59.65,2.9,1.12,1.45.53,2.59,1,3.42,1.41.83.41,1.58,1.02,2.24,1.83.66.81,1,1.86,1,3.15,0,1.92-.71,3.44-2.12,4.56-1.41,1.12-3.33,1.67-5.74,1.67-1.64,0-3.07-.26-4.3-.78-1.23-.52-2.18-1.27-2.84-2.24-.67-.97-1-2.1-1-3.39v-1.04h4.24v.83Z"/>
      <path class="cls-1" d="m276.23,6.4h4.33v21.5h-4.12l-8.29-13.74.06,13.74h-4.33V6.4h4.12l8.26,13.64-.03-13.64Z"/>
      <path class="cls-1" d="m293.47,6.4c1.54,0,2.88.27,4.04.81,1.16.54,2.05,1.3,2.69,2.29.63.98.95,2.12.95,3.41v8.48c0,1.29-.32,2.43-.95,3.41-.64.98-1.53,1.75-2.69,2.29-1.16.54-2.5.81-4.04.81h-8.05V6.4h8.05Zm.15,17.78c.94,0,1.7-.32,2.29-.95.58-.64.89-1.48.91-2.55v-7.06c0-1.06-.29-1.91-.88-2.55-.58-.63-1.37-.95-2.35-.95h-3.84v14.07h3.87Z"/>
      <path class="cls-1" d="m143.42,6.4h-5.42l-6.87,21.5h4.65l1.03-3.47h7.77l1.07,3.47h4.63l-6.87-21.5Zm-5.61,14.71l2.91-9.78,2.91,9.78h-5.81Z"/>
      <path class="cls-1" d="m221.91,18.77c-.04-.1-.01-.17.09-.21,1.25-.41,2.22-1.11,2.92-2.1.7-.99,1.04-2.19,1.04-3.58,0-1.29-.27-2.43-.81-3.41-.54-.98-1.31-1.74-2.3-2.27-.99-.53-2.15-.8-3.45-.8h-9.15v21.5h4.33v-8.75c0-.1.05-.15.15-.15h2.86c.08,0,.14.04.18.12l3.96,8.78h4.56l-4.38-9.12Zm-1.06-3.87c-.54.51-1.24.77-2.1.77h-4.18v-5.56h4.18c.86,0,1.56.26,2.1.78.54.52.81,1.19.81,2.01s-.27,1.48-.81,2Z"/>
      <polygon class="cls-1" points="240.5 19.29 244.09 13.61 244.09 27.89 248.42 27.89 248.42 6.4 244.19 6.4 239.33 13.94 234.47 6.4 230.24 6.4 230.24 27.89 234.57 27.89 234.57 13.61 238.16 19.29 240.5 19.29"/>
      <polygon class="cls-1" points="66.56 6.4 66.56 27.89 81.46 27.89 81.46 24.18 70.89 24.18 70.89 6.4 66.56 6.4"/>
      <path class="cls-1" d="m57.15,6.38h-8.93v21.53h4.33v-8.35h4.6c3.78,0,6.82-2.21,6.88-6.51v-.15c-.07-4.3-3.11-6.51-6.88-6.51Zm2.59,6.76c0,2.87-2.96,2.95-2.96,2.95h-4.23v-5.96h4.23s2.96.08,2.96,2.95v.06Z"/>
      <polygon class="cls-1" points="205.77 10.11 205.77 6.4 190.87 6.4 190.87 27.89 205.77 27.89 205.77 24.18 195.2 24.18 195.2 18.88 202.3 18.88 202.3 15.18 195.2 15.18 195.2 10.11 205.77 10.11"/>
      <polygon class="cls-1" points="120.39 19.29 123.99 13.61 123.99 27.89 128.32 27.89 128.32 6.4 124.09 6.4 119.23 13.94 114.37 6.4 110.14 6.4 110.14 27.89 114.47 27.89 114.47 13.61 118.06 19.29 120.39 19.29"/>
      <rect class="cls-1" x="253.95" y="6.4" width="4.33" height="21.5"/>
      <polygon class="cls-1" points="186.87 6.4 170.66 6.4 170.66 10.13 176.6 10.13 176.6 27.89 180.93 27.89 180.93 10.13 186.87 10.13 186.87 6.4"/>
      <g>
        <path class="cls-2" d="m53.6,48.36c.92,0,1.61-.06,2.06-.19.45-.13.77-.35.94-.67.17-.32.26-.79.26-1.4,0-.68-.09-1.17-.28-1.48s-.51-.51-.98-.6c-.47-.09-1.2-.14-2.2-.14-.48,0-1.06.02-1.75.07-.69.05-1.33.11-1.93.19v-7.66h8.42v2.06h-6.38v3.48c1.01-.11,1.97-.16,2.88-.16,1.23,0,2.17.15,2.82.44.65.29,1.1.72,1.34,1.29.24.57.36,1.32.36,2.27,0,1.15-.15,2.04-.44,2.68-.29.64-.83,1.11-1.6,1.41s-1.89.45-3.34.45c-.65,0-1.38-.04-2.18-.11-.8-.07-1.48-.17-2.04-.29v-1.88c1.64.16,2.99.24,4.04.24Z"/>
        <path class="cls-2" d="m61.56,45.54v-2h5.08v2h-5.08Z"/>
        <path class="cls-2" d="m76.55,50.32c-.63.05-1.22.08-1.77.08-1.67,0-2.89-.19-3.68-.58-.79-.39-1.31-1.06-1.58-2.02s-.4-2.44-.4-4.44.13-3.48.4-4.44.79-1.63,1.58-2.02c.79-.39,2.01-.58,3.68-.58.56,0,1.15.03,1.77.1.62.07,1.13.15,1.53.24v1.9c-1.07-.13-1.98-.2-2.74-.2-1.31,0-2.21.1-2.72.3s-.84.62-1,1.26c-.16.64-.24,1.79-.24,3.44s.08,2.8.24,3.44c.16.64.49,1.06,1,1.26.51.2,1.41.3,2.72.3,1.04,0,1.98-.07,2.82-.2v1.94c-.44.09-.98.17-1.61.22Z"/>
        <path class="cls-2" d="m90.16,50.24l-1.22-3.32h-5.82l-1.18,3.32h-2.28l4.94-13.76h2.94l4.94,13.76h-2.32Zm-4.08-11.48h-.1l-2.2,6.14h4.5l-2.2-6.14Z"/>
        <path class="cls-2" d="m103,50.24l-2.04-5.2h-3.94v5.2h-2.26v-13.76h6.42c1.12,0,1.97.17,2.55.51s.97.81,1.16,1.42c.19.61.29,1.39.29,2.35s-.14,1.74-.41,2.47-.82,1.23-1.63,1.51l2.26,5.5h-2.4Zm-.97-7.43c.38-.14.62-.36.73-.67.11-.31.16-.77.16-1.38s-.05-1.11-.15-1.4c-.1-.29-.33-.51-.69-.64-.36-.13-.95-.2-1.76-.2h-3.3v4.5h3.22c.81,0,1.41-.07,1.79-.21Z"/>
        <path class="cls-2" d="m108.36,36.48h4.52c1.95,0,3.32.18,4.13.54.81.36,1.32.98,1.53,1.85.21.87.32,2.37.32,4.49s-.11,3.62-.32,4.5-.72,1.5-1.53,1.85c-.81.35-2.18.53-4.13.53h-4.52v-13.76Zm4.3,11.72c1.41,0,2.36-.07,2.83-.22s.78-.52.92-1.12c.14-.6.21-1.77.21-3.5s-.07-2.86-.22-3.47c-.15-.61-.46-.99-.94-1.14-.48-.15-1.41-.23-2.8-.23h-2.04v9.68h2.04Z"/>
        <path class="cls-2" d="m126.94,36.48h6.18c1.11,0,1.96.18,2.55.54.59.36.99.86,1.2,1.49.21.63.31,1.45.31,2.45s-.1,1.76-.31,2.4-.61,1.15-1.21,1.52c-.6.37-1.47.56-2.6.56h-3.86v4.8h-2.26v-13.76Zm5.26,6.94c.85,0,1.47-.07,1.84-.21.37-.14.62-.37.73-.7.11-.33.17-.84.17-1.55s-.05-1.22-.16-1.54c-.11-.32-.34-.55-.71-.69-.37-.14-.97-.21-1.81-.21h-3.06v4.9h3Z"/>
        <path class="cls-2" d="m139.96,50.24v-13.76h2.26v11.66h6.12v2.1h-8.38Z"/>
        <path class="cls-2" d="m152.11,49.83c-.78-.38-1.28-1.02-1.49-1.93-.21-.91-.32-2.42-.32-4.54s.11-3.63.32-4.54c.21-.91.71-1.55,1.49-1.93.78-.38,2.09-.57,3.93-.57s3.15.19,3.94.57c.79.38,1.29,1.03,1.5,1.94.21.91.32,2.42.32,4.53s-.11,3.62-.32,4.53c-.21.91-.71,1.56-1.5,1.94-.79.38-2.1.57-3.94.57s-3.15-.19-3.93-.57Zm6.41-1.71c.43-.16.7-.55.83-1.18s.19-1.82.19-3.58-.06-2.95-.19-3.58-.4-1.02-.83-1.18c-.43-.16-1.25-.24-2.48-.24s-2.05.08-2.47.24c-.42.16-.69.55-.82,1.18s-.19,1.82-.19,3.58.06,2.95.19,3.58.4,1.02.82,1.18,1.24.24,2.47.24,2.05-.08,2.48-.24Z"/>
        <path class="cls-2" d="m172.68,50.24v-11.66h-4.18v-2.1h10.62v2.1h-4.18v11.66h-2.26Z"/>
        <path class="cls-2" d="m189.7,50.24l-2.04-5.2h-3.94v5.2h-2.26v-13.76h6.42c1.12,0,1.97.17,2.55.51.58.34.97.81,1.16,1.42.19.61.29,1.39.29,2.35s-.14,1.74-.41,2.47-.82,1.23-1.63,1.51l2.26,5.5h-2.4Zm-.97-7.43c.38-.14.62-.36.73-.67s.16-.77.16-1.38-.05-1.11-.15-1.4c-.1-.29-.33-.51-.69-.64-.36-.13-.95-.2-1.76-.2h-3.3v4.5h3.22c.81,0,1.41-.07,1.79-.21Z"/>
        <path class="cls-2" d="m204.16,50.24l-1.22-3.32h-5.82l-1.18,3.32h-2.28l4.94-13.76h2.94l4.94,13.76h-2.32Zm-4.08-11.48h-.1l-2.2,6.14h4.5l-2.2-6.14Z"/>
        <path class="cls-2" d="m208.76,50.24v-13.76h2.26v13.76h-2.26Z"/>
        <path class="cls-2" d="m223.42,50.24l-6.5-9.64h-.08v9.64h-2.16v-13.76h2.34l6.32,9.3h.08v-9.3h2.16v13.76h-2.16Z"/>
        <path class="cls-2" d="m229.25,50.24v-13.76h9.18v2.04h-6.92v3.76h5.98v2.04h-5.98v3.88h6.92v2.04h-9.18Z"/>
        <path class="cls-2" d="m249.63,50.24l-2.04-5.2h-3.94v5.2h-2.26v-13.76h6.42c1.12,0,1.97.17,2.55.51.58.34.97.81,1.16,1.42.19.61.29,1.39.29,2.35s-.14,1.74-.41,2.47-.82,1.23-1.63,1.51l2.26,5.5h-2.4Zm-.97-7.43c.38-.14.62-.36.73-.67s.16-.77.16-1.38-.05-1.11-.15-1.4c-.1-.29-.33-.51-.69-.64-.36-.13-.95-.2-1.76-.2h-3.3v4.5h3.22c.81,0,1.41-.07,1.79-.21Z"/>
      </g>
    </g>
  </g>
</svg>