<?xml version="1.0" encoding="UTF-8"?>
<svg id="Capa_2" data-name="Capa 2" xmlns="http://www.w3.org/2000/svg" viewBox="0 0 653.65 98">
  <defs>
    <style>
      .cls-1 {
        fill: #35f07e;
      }

      .cls-2 {
        fill: #fff;
      }
    </style>
  </defs>
  <g id="Capa_2-2" data-name="Capa 2">
    <g>
      <g>
        <polygon class="cls-1" points="0 30.4 45.18 54.26 45.18 23.88 0 0 0 30.4"/>
        <polygon class="cls-1" points="96.48 30.4 51.3 54.26 51.3 23.88 96.48 0 96.48 30.4"/>
        <polygon class="cls-1" points="0 36.62 28.14 51.48 28.14 98 0 83.14 0 36.62"/>
        <polygon class="cls-1" points="96.59 36.6 68.37 51.48 68.37 98 96.51 83.14 96.59 36.6"/>
      </g>
      <g>
        <path class="cls-2" d="M246.56,77.75c-3.48-1.87-6.19-4.49-8.12-7.86-1.93-3.36-2.9-7.24-2.9-11.63v-18.78c0-4.33.96-8.16,2.9-11.5,1.93-3.34,4.64-5.93,8.12-7.77,3.48-1.84,7.51-2.76,12.07-2.76s8.67.92,12.16,2.76c3.48,1.84,6.19,4.43,8.12,7.77,1.93,3.34,2.9,7.17,2.9,11.5v18.78c0,4.39-.97,8.28-2.9,11.67-1.93,3.4-4.64,6.01-8.12,7.86-3.48,1.84-7.53,2.77-12.16,2.77s-8.59-.94-12.07-2.81ZM266.44,66.86c1.99-2.05,2.98-4.77,2.98-8.16v-19.31c0-3.39-.98-6.13-2.94-8.2-1.96-2.08-4.58-3.12-7.86-3.12s-5.81,1.04-7.77,3.12c-1.96,2.07-2.94,4.81-2.94,8.2v19.31c0,3.4.98,6.12,2.94,8.16,1.96,2.05,4.55,3.07,7.77,3.07s5.82-1.02,7.81-3.07Z"/>
        <path class="cls-2" d="M533.89,18.28h12.37v61.44h-11.77l-23.68-39.27.17,39.27h-12.38V18.28h11.78l23.6,38.97-.09-38.97Z"/>
        <path class="cls-2" d="M448.25,18.28h-15.48l-19.63,61.44h13.3l2.93-9.91h22.2l3.06,9.91h13.24l-19.63-61.44ZM432.21,60.32l8.31-27.95,8.31,27.95h-16.61Z"/>
        <path class="cls-2" d="M394.21,53.65c-.12-.29-.03-.49.26-.61,3.57-1.17,6.35-3.18,8.34-6.01,1.99-2.84,2.98-6.24,2.98-10.22,0-3.69-.78-6.93-2.32-9.74-1.55-2.81-3.75-4.97-6.58-6.5-2.84-1.52-6.13-2.28-9.87-2.28h-26.16v61.44h12.38v-25.02c0-.29.15-.44.44-.44h8.16c.23,0,.41.12.53.35l11.33,25.1h13.04l-12.52-26.07ZM391.18,42.59c-1.55,1.46-3.55,2.2-6.01,2.2h-11.94v-15.89h11.94c2.46,0,4.46.75,6.01,2.24,1.55,1.49,2.33,3.41,2.33,5.75s-.78,4.24-2.33,5.7Z"/>
        <path class="cls-2" d="M641.13,53.65c-.12-.29-.03-.49.26-.61,3.57-1.17,6.35-3.18,8.34-6.01,1.99-2.84,2.98-6.24,2.98-10.22,0-3.69-.78-6.93-2.32-9.74-1.55-2.81-3.75-4.97-6.58-6.5-2.84-1.52-6.13-2.28-9.87-2.28h-26.16v61.44h12.38v-25.02c0-.29.15-.44.44-.44h8.16c.23,0,.41.12.53.35l11.33,25.1h13.04l-12.52-26.07ZM638.1,42.59c-1.55,1.46-3.55,2.2-6.01,2.2h-11.94v-15.89h11.94c2.46,0,4.46.75,6.01,2.24,1.55,1.49,2.33,3.41,2.33,5.75s-.78,4.24-2.33,5.7Z"/>
        <polygon class="cls-2" points="187.34 18.28 187.34 79.72 229.91 79.72 229.91 69.1 199.71 69.1 199.71 18.28 187.34 18.28"/>
        <path class="cls-2" d="M160.44,18.23h-25.52v61.53h12.37v-23.87h13.15c10.79,0,19.48-6.32,19.68-18.62v-.43c-.2-12.3-8.89-18.61-19.68-18.61ZM167.83,37.55c0,8.2-8.45,8.43-8.45,8.43h-12.09v-17.03h12.09s8.45.23,8.45,8.43v.18Z"/>
        <polygon class="cls-2" points="599.2 28.9 599.2 18.28 556.63 18.28 556.63 79.72 599.2 79.72 599.2 69.1 569 69.1 569 53.96 589.28 53.96 589.28 43.38 569 43.38 569 28.9 599.2 28.9"/>
        <rect class="cls-2" x="475.41" y="18.28" width="12.38" height="61.44"/>
        <polygon class="cls-2" points="352.96 18.28 306.61 18.28 306.61 28.94 323.6 28.94 323.6 79.72 335.97 79.72 335.97 28.94 352.96 28.94 352.96 18.28"/>
      </g>
    </g>
  </g>
</svg>