<?xml version="1.0" encoding="UTF-8"?>
<svg id="Capa_2" data-name="Capa 2" xmlns="http://www.w3.org/2000/svg" viewBox="0 0 34.66 34.67">
  <defs>
    <style>
      .cls-1 {
        fill: #b2bfcc;
        stroke-width: 0px;
      }
    </style>
  </defs>
  <g id="Capa_2-2" data-name="Capa 2">
    <g>
      <path class="cls-1" d="m25.56,11.43l-1.17,1.16c-.32.32-.64.63-.95.94,1.86,2.91,1.52,6.81-1.02,9.35-2.93,2.93-7.69,2.93-10.63,0-2.93-2.93-2.93-7.69,0-10.63,2.54-2.54,6.45-2.88,9.35-1.02l2.1-2.12c-4.09-2.97-9.84-2.62-13.52,1.07-4.08,4.08-4.08,10.7,0,14.78,4.08,4.08,10.7,4.08,14.78,0,3.69-3.69,4.04-9.44,1.07-13.52Z"/>
      <path class="cls-1" d="m20.66,16.26c-1.33,1.32-2.28,2.25-2.43,2.4h0s-.03.04-.03.04c-.74.68-1.67.5-2.2-.03s-.71-1.45-.03-2.2h0s0-.02,0-.02l2.42-2.46c-1.35-.49-2.91-.2-3.99.88-1.48,1.48-1.48,3.89,0,5.37s3.89,1.48,5.37,0c1.08-1.08,1.37-2.65.88-4Z"/>
      <path class="cls-1" d="m34.66,5.37l-4.48-.89-.89-4.48-5.6,5.6.62,3.49c-3.14,3.19-7.82,7.96-7.82,7.96-.71.78.36,1.83,1.13,1.13,0,0,4.77-4.69,7.96-7.83l3.48.62,5.6-5.6Z"/>
      <path class="cls-1" d="m31.87,8.95l-2.62,2.62-.21-.04c2.54,5.02,1.71,11.3-2.48,15.5-5.22,5.22-13.69,5.22-18.92,0s-5.22-13.69,0-18.92c4.19-4.19,10.47-5.02,15.49-2.49l-.04-.21,2.62-2.62C19.16-1.03,10.62-.13,5.01,5.48c-6.68,6.68-6.68,17.5,0,24.18s17.5,6.68,24.18,0c5.61-5.61,6.51-14.16,2.68-20.71Z"/>
    </g>
  </g>
</svg>